<svg id="SvgjsSvg1006" width="722" height="1199" xmlns="http://www.w3.org/2000/svg" version="1.1" xmlns:xlink="http://www.w3.org/1999/xlink" xmlns:svgjs="http://svgjs.com/svgjs"><defs id="SvgjsDefs1007"><marker id="SvgjsMarker1067" markerWidth="14" markerHeight="10" refX="10" refY="5" viewBox="0 0 14 10" orient="auto" markerUnits="userSpaceOnUse" stroke-dasharray="0,0"><path id="SvgjsPath1068" d="M0,0 L14,5 L0,10 L0,0" fill="#323232" stroke="#323232" stroke-width="1"></path></marker><marker id="SvgjsMarker1075" markerWidth="16" markerHeight="20" refX="0" refY="10" viewBox="0 0 16 20" orient="auto" markerUnits="userSpaceOnUse" stroke-dasharray="0,0"><path id="SvgjsPath1076" d="M15,1 L1,10 L15,19" fill="none" stroke="#323232" stroke-width="2"></path></marker><marker id="SvgjsMarker1083" markerWidth="14" markerHeight="10" refX="10" refY="5" viewBox="0 0 14 10" orient="auto" markerUnits="userSpaceOnUse" stroke-dasharray="0,0"><path id="SvgjsPath1084" d="M0,0 L14,5 L0,10 L0,0" fill="#323232" stroke="#323232" stroke-width="1"></path></marker><marker id="SvgjsMarker1091" markerWidth="16" markerHeight="20" refX="0" refY="10" viewBox="0 0 16 20" orient="auto" markerUnits="userSpaceOnUse" stroke-dasharray="0,0"><path id="SvgjsPath1092" d="M15,1 L1,10 L15,19" fill="none" stroke="#323232" stroke-width="2"></path></marker><marker id="SvgjsMarker1099" markerWidth="14" markerHeight="10" refX="10" refY="5" viewBox="0 0 14 10" orient="auto" markerUnits="userSpaceOnUse" stroke-dasharray="0,0"><path id="SvgjsPath1100" d="M0,0 L14,5 L0,10 L0,0" fill="#323232" stroke="#323232" stroke-width="1"></path></marker><marker id="SvgjsMarker1107" markerWidth="16" markerHeight="20" refX="0" refY="10" viewBox="0 0 16 20" orient="auto" markerUnits="userSpaceOnUse" stroke-dasharray="0,0"><path id="SvgjsPath1108" d="M15,1 L1,10 L15,19" fill="none" stroke="#323232" stroke-width="2"></path></marker><marker id="SvgjsMarker1115" markerWidth="14" markerHeight="10" refX="10" refY="5" viewBox="0 0 14 10" orient="auto" markerUnits="userSpaceOnUse" stroke-dasharray="0,0"><path id="SvgjsPath1116" d="M0,0 L14,5 L0,10 L0,0" fill="#323232" stroke="#323232" stroke-width="1"></path></marker><marker id="SvgjsMarker1123" markerWidth="14" markerHeight="10" refX="10" refY="5" viewBox="0 0 14 10" orient="auto" markerUnits="userSpaceOnUse" stroke-dasharray="0,0"><path id="SvgjsPath1124" d="M0,0 L14,5 L0,10 L0,0" fill="#323232" stroke="#323232" stroke-width="1"></path></marker><marker id="SvgjsMarker1131" markerWidth="14" markerHeight="10" refX="10" refY="5" viewBox="0 0 14 10" orient="auto" markerUnits="userSpaceOnUse" stroke-dasharray="0,0"><path id="SvgjsPath1132" d="M0,0 L14,5 L0,10 L0,0" fill="#323232" stroke="#323232" stroke-width="1"></path></marker></defs><g id="SvgjsG1008" transform="translate(25.012481689453125,25)"><path id="SvgjsPath1009" d="M 0 4Q 0 0 4 0L 668 0Q 672 0 672 4L 672 1144.6000366210938Q 672 1148.6000366210938 668 1148.6000366210938L 4 1148.6000366210938Q 0 1148.6000366210938 0 1144.6000366210938Z" stroke="rgba(50,50,50,1)" stroke-width="2" fill-opacity="1" fill="#ffffff"></path><path id="SvgjsPath1010" d="M 0 25L 201.6 25L 209.6 17L 209.6 0" stroke="rgba(50,50,50,1)" stroke-width="2" fill-opacity="1" fill="#ffffff"></path><path id="SvgjsPath1011" d="M 0 0L 672 0L 672 1148.6000366210938L 0 1148.6000366210938Z" stroke="none" fill="none"></path><g id="SvgjsG1012"><text id="SvgjsText1013" font-family="微软雅黑" text-anchor="start" font-size="13px" width="652px" fill="#323232" font-weight="400" align="top" lineHeight="125%" anchor="start" family="微软雅黑" size="13px" weight="400" font-style="" opacity="1" y="27.375" transform="rotate(0)"></text></g><g id="SvgjsG1014"><text id="SvgjsText1015" font-family="微软雅黑" text-anchor="start" font-size="13px" width="192px" fill="#323232" font-weight="400" align="middle" lineHeight="125%" anchor="start" family="微软雅黑" size="13px" weight="400" font-style="" opacity="1" y="1.875" transform="rotate(0)"><tspan id="SvgjsTspan1016" dy="16" x="10"><tspan id="SvgjsTspan1017" style="text-decoration:;">sd business progress</tspan></tspan></text></g></g><g id="SvgjsG1018" transform="translate(116.01248168945312,261.4000015258789)"><path id="SvgjsPath1019" d="M 0 4Q 0 0 4 0L 476 0Q 480 0 480 4L 480 873.2000350952148Q 480 877.2000350952148 476 877.2000350952148L 4 877.2000350952148Q 0 877.2000350952148 0 873.2000350952148Z" stroke="rgba(50,50,50,1)" stroke-width="2" fill-opacity="1" fill="#ffffff"></path><path id="SvgjsPath1020" d="M 0 25L 144 25L 152 17L 152 0" stroke="rgba(50,50,50,1)" stroke-width="2" fill-opacity="1" fill="#ffffff"></path><path id="SvgjsPath1021" d="M 0 0L 480 0L 480 877.2000350952148L 0 877.2000350952148Z" stroke="none" fill="none"></path><g id="SvgjsG1022"><text id="SvgjsText1023" font-family="微软雅黑" text-anchor="start" font-size="13px" width="460px" fill="#323232" font-weight="400" align="top" lineHeight="125%" anchor="start" family="微软雅黑" size="13px" weight="400" font-style="" opacity="1" y="27.375" transform="rotate(0)"></text></g><g id="SvgjsG1024"><text id="SvgjsText1025" font-family="微软雅黑" text-anchor="start" font-size="13px" width="134px" fill="#323232" font-weight="400" align="middle" lineHeight="125%" anchor="start" family="微软雅黑" size="13px" weight="400" font-style="" opacity="1" y="1.875" transform="rotate(0)"><tspan id="SvgjsTspan1026" dy="16" x="10"><tspan id="SvgjsTspan1027" style="text-decoration:;">Loop</tspan></tspan></text></g></g><g id="SvgjsG1028" transform="translate(136.01248168945312,723.3999938964844)"><path id="SvgjsPath1029" d="M 0 4Q 0 0 4 0L 429 0Q 433 0 433 4L 433 321.2000427246094Q 433 325.2000427246094 429 325.2000427246094L 4 325.2000427246094Q 0 325.2000427246094 0 321.2000427246094Z" stroke="rgba(50,50,50,1)" stroke-width="2" fill-opacity="1" fill="#ffffff"></path><path id="SvgjsPath1030" d="M 0 25L 129.9 25L 137.9 17L 137.9 0" stroke="rgba(50,50,50,1)" stroke-width="2" fill-opacity="1" fill="#ffffff"></path><path id="SvgjsPath1031" d="M 0 0L 433 0L 433 325.2000427246094L 0 325.2000427246094Z" stroke="none" fill="none"></path><g id="SvgjsG1032"><text id="SvgjsText1033" font-family="微软雅黑" text-anchor="start" font-size="13px" width="413px" fill="#323232" font-weight="400" align="top" lineHeight="125%" anchor="start" family="微软雅黑" size="13px" weight="400" font-style="" opacity="1" y="27.375" transform="rotate(0)"></text></g><g id="SvgjsG1034"><text id="SvgjsText1035" font-family="微软雅黑" text-anchor="start" font-size="13px" width="120px" fill="#323232" font-weight="400" align="middle" lineHeight="125%" anchor="start" family="微软雅黑" size="13px" weight="400" font-style="" opacity="1" y="1.875" transform="rotate(0)"><tspan id="SvgjsTspan1036" dy="16" x="10"><tspan id="SvgjsTspan1037" style="text-decoration:;">Opt</tspan></tspan></text></g></g><g id="SvgjsG1038" transform="translate(136.01248168945312,440.4000015258789)"><path id="SvgjsPath1039" d="M 0 4Q 0 0 4 0L 429 0Q 433 0 433 4L 433 232Q 433 236 429 236L 4 236Q 0 236 0 232Z" stroke="rgba(50,50,50,1)" stroke-width="2" fill-opacity="1" fill="#ffffff"></path><path id="SvgjsPath1040" d="M 0 25L 129.9 25L 137.9 17L 137.9 0" stroke="rgba(50,50,50,1)" stroke-width="2" fill-opacity="1" fill="#ffffff"></path><path id="SvgjsPath1041" d="M 0 0L 433 0L 433 236L 0 236Z" stroke="none" fill="none"></path><g id="SvgjsG1042"><text id="SvgjsText1043" font-family="微软雅黑" text-anchor="start" font-size="13px" width="413px" fill="#323232" font-weight="400" align="top" lineHeight="125%" anchor="start" family="微软雅黑" size="13px" weight="400" font-style="" opacity="1" y="27.375" transform="rotate(0)"></text></g><g id="SvgjsG1044"><text id="SvgjsText1045" font-family="微软雅黑" text-anchor="start" font-size="13px" width="120px" fill="#323232" font-weight="400" align="middle" lineHeight="125%" anchor="start" family="微软雅黑" size="13px" weight="400" font-style="" opacity="1" y="1.875" transform="rotate(0)"><tspan id="SvgjsTspan1046" dy="16" x="10"><tspan id="SvgjsTspan1047" style="text-decoration:;">Opt</tspan></tspan></text></g></g><g id="SvgjsG1048" transform="translate(239.01248168945312,136.1999969482422)"><path id="SvgjsPath1049" d="M 14.666666666666666 7.75C 14.666666666666666 -2.583333333333333 29.333333333333332 -2.583333333333333 29.333333333333332 7.75C 29.333333333333332 18.083333333333332 14.666666666666666 18.083333333333332 14.666666666666666 7.75M 22 15.5L 22 46.5M 22 46.5L 3.6666666666666665 62M 22 46.5L 40.33333333333333 62M 0 31L 44 31" stroke="rgba(50,50,50,1)" stroke-width="2" fill-opacity="1" fill="#ffffff"></path><path id="SvgjsPath1050" d="M 0 0L 44 0L 44 62L 0 62Z" stroke="none" fill="none"></path><g id="SvgjsG1051"><text id="SvgjsText1052" font-family="微软雅黑" text-anchor="middle" font-size="13px" width="84px" fill="#323232" font-weight="400" align="middle" lineHeight="125%" anchor="middle" family="微软雅黑" size="13px" weight="400" font-style="" opacity="1" y="66.375" transform="rotate(0)"><tspan id="SvgjsTspan1053" dy="16" x="22"><tspan id="SvgjsTspan1054" style="text-decoration:;">财务人员</tspan></tspan></text></g></g><g id="SvgjsG1055" transform="translate(415.0124816894531,154.1999969482422)"><path id="SvgjsPath1056" d="M 0 0L 82 0L 82 44L 0 44Z" stroke="rgba(50,50,50,1)" stroke-width="2" fill-opacity="1" fill="#ffffff"></path><g id="SvgjsG1057"><text id="SvgjsText1058" font-family="微软雅黑" text-anchor="middle" font-size="13px" width="62px" fill="#323232" font-weight="400" align="middle" lineHeight="125%" anchor="middle" family="微软雅黑" size="13px" weight="400" font-style="" opacity="1" y="11.375" transform="rotate(0)"><tspan id="SvgjsTspan1059" dy="16" x="41"><tspan id="SvgjsTspan1060" style="text-decoration:;">系统</tspan></tspan></text></g></g><g id="SvgjsG1061" transform="translate(246.01248168945312,233.1999969482422)"><path id="SvgjsPath1062" d="M 0 4Q 0 0 4 0L 26 0Q 30 0 30 4L 30 868.4000396728516Q 30 872.4000396728516 26 872.4000396728516L 4 872.4000396728516Q 0 872.4000396728516 0 868.4000396728516L 0 4Z" stroke="rgba(50,50,50,1)" stroke-width="2" fill-opacity="1" fill="#ffffff"></path></g><g id="SvgjsG1063" transform="translate(441.0124816894531,233.1999969482422)"><path id="SvgjsPath1064" d="M 0 4Q 0 0 4 0L 26 0Q 30 0 30 4L 30 868.4000396728516Q 30 872.4000396728516 26 872.4000396728516L 4 872.4000396728516Q 0 872.4000396728516 0 868.4000396728516L 0 4Z" stroke="rgba(50,50,50,1)" stroke-width="2" fill-opacity="1" fill="#ffffff"></path></g><g id="SvgjsG1065"><path id="SvgjsPath1066" d="M277.0124816894531 306.20000076293945L357.0124816894531 306.20000076293945L357.0124816894531 306.20000076293945L437.0124816894531 306.20000076293945" stroke="#323232" stroke-width="2" fill="none" marker-end="url(#SvgjsMarker1067)"></path><rect id="SvgjsRect1069" width="52" height="16" x="331.0124816894531" y="298.20000076293945" fill="#ffffff"></rect><text id="SvgjsText1070" font-family="微软雅黑" text-anchor="middle" font-size="13px" width="52px" fill="#323232" font-weight="400" align="top" lineHeight="16px" anchor="middle" family="微软雅黑" size="13px" weight="400" font-style="" opacity="1" y="295.57500076293945" transform="rotate(0)"><tspan id="SvgjsTspan1071" dy="16" x="357.0124816894531"><tspan id="SvgjsTspan1072" style="text-decoration:;">筛选单据</tspan></tspan></text></g><g id="SvgjsG1073"><path id="SvgjsPath1074" d="M278.0124816894531 363.4000015258789L358.5124816894531 363.4000015258789L358.5124816894531 363.4000015258789L440.0124816894531 363.4000015258789" stroke-dasharray="8,5" stroke="#323232" stroke-width="2" fill="none" marker-start="url(#SvgjsMarker1075)"></path><rect id="SvgjsRect1077" width="52" height="16" x="333.0124816894532" y="355.4000015258789" fill="#ffffff"></rect><text id="SvgjsText1078" font-family="微软雅黑" text-anchor="middle" font-size="13px" width="52px" fill="#323232" font-weight="400" align="top" lineHeight="16px" anchor="middle" family="微软雅黑" size="13px" weight="400" font-style="" opacity="1" y="352.7750015258789" transform="rotate(0)"><tspan id="SvgjsTspan1079" dy="16" x="359.0124816894532"><tspan id="SvgjsTspan1080" style="text-decoration:;">显示单据</tspan></tspan></text></g><g id="SvgjsG1081"><path id="SvgjsPath1082" d="M275.0124816894531 505.4000015258789L357.5124816894531 505.4000015258789L357.5124816894531 505.4000015258789L437.4124816894531 505.4000015258789" stroke="#323232" stroke-width="2" fill="none" marker-end="url(#SvgjsMarker1083)"></path><rect id="SvgjsRect1085" width="26" height="16" x="343.2124816894531" y="497.4000015258789" fill="#ffffff"></rect><text id="SvgjsText1086" font-family="微软雅黑" text-anchor="middle" font-size="13px" width="26px" fill="#323232" font-weight="400" align="top" lineHeight="16px" anchor="middle" family="微软雅黑" size="13px" weight="400" font-style="" opacity="1" y="494.7750015258789" transform="rotate(0)"><tspan id="SvgjsTspan1087" dy="16" x="356.2124816894531"><tspan id="SvgjsTspan1088" style="text-decoration:;">红冲</tspan></tspan></text></g><g id="SvgjsG1089"><path id="SvgjsPath1090" d="M278.0124816894531 598.4000015258789L358.5124816894531 598.4000015258789L358.5124816894531 598.4000015258789L440.0124816894531 598.4000015258789" stroke-dasharray="8,5" stroke="#323232" stroke-width="2" fill="none" marker-start="url(#SvgjsMarker1091)"></path><rect id="SvgjsRect1093" width="91" height="16" x="313.5124816894532" y="590.4000015258789" fill="#ffffff"></rect><text id="SvgjsText1094" font-family="微软雅黑" text-anchor="middle" font-size="13px" width="91px" fill="#323232" font-weight="400" align="top" lineHeight="16px" anchor="middle" family="微软雅黑" size="13px" weight="400" font-style="" opacity="1" y="587.7750015258789" transform="rotate(0)"><tspan id="SvgjsTspan1095" dy="16" x="359.0124816894532"><tspan id="SvgjsTspan1096" style="text-decoration:;">生成单据并入账</tspan></tspan></text></g><g id="SvgjsG1097"><path id="SvgjsPath1098" d="M277.0124816894531 803.3999938964844L358.5124816894531 803.3999938964844L358.5124816894531 803.3999938964844L437.4124816894531 803.3999938964844" stroke="#323232" stroke-width="2" fill="none" marker-end="url(#SvgjsMarker1099)"></path><rect id="SvgjsRect1101" width="65" height="16" x="324.7124816894531" y="795.3999938964844" fill="#ffffff"></rect><text id="SvgjsText1102" font-family="微软雅黑" text-anchor="middle" font-size="13px" width="65px" fill="#323232" font-weight="400" align="top" lineHeight="16px" anchor="middle" family="微软雅黑" size="13px" weight="400" font-style="" opacity="1" y="792.7749938964844" transform="rotate(0)"><tspan id="SvgjsTspan1103" dy="16" x="357.2124816894531"><tspan id="SvgjsTspan1104" style="text-decoration:;">红冲并复制</tspan></tspan></text></g><g id="SvgjsG1105"><path id="SvgjsPath1106" d="M278.0124816894531 924.3999938964844L358.5124816894531 924.3999938964844L358.5124816894531 924.3999938964844L440.0124816894531 924.3999938964844" stroke-dasharray="8,5" stroke="#323232" stroke-width="2" fill="none" marker-start="url(#SvgjsMarker1107)"></path><rect id="SvgjsRect1109" width="91" height="16" x="313.5124816894532" y="916.3999938964844" fill="#ffffff"></rect><text id="SvgjsText1110" font-family="微软雅黑" text-anchor="middle" font-size="13px" width="91px" fill="#323232" font-weight="400" align="top" lineHeight="16px" anchor="middle" family="微软雅黑" size="13px" weight="400" font-style="" opacity="1" y="913.7749938964844" transform="rotate(0)"><tspan id="SvgjsTspan1111" dy="16" x="359.0124816894532"><tspan id="SvgjsTspan1112" style="text-decoration:;">生成单据并入账</tspan></tspan></text></g><g id="SvgjsG1113"><path id="SvgjsPath1114" d="M471.97766735677885 804.8616023443623C 517.0124816894531 804.6000366210938 517.0124816894531 919.6000366210938 474.4871500918257 918.658400017327" stroke="#323232" stroke-width="2" fill="none" marker-end="url(#SvgjsMarker1115)"></path><rect id="SvgjsRect1117" width="26" height="16" x="493.0674634481654" y="854.0150277610315" fill="#ffffff"></rect><text id="SvgjsText1118" font-family="微软雅黑" text-anchor="middle" font-size="13px" width="26px" fill="#323232" font-weight="400" align="top" lineHeight="16px" anchor="middle" family="微软雅黑" size="13px" weight="400" font-style="" opacity="1" y="851.3900277610315" transform="rotate(0)"><tspan id="SvgjsTspan1119" dy="16" x="506.0674634481654"><tspan id="SvgjsTspan1120" style="text-decoration:;">更新</tspan></tspan></text></g><g id="SvgjsG1121"><path id="SvgjsPath1122" d="M469.95240122316864 508.74140521579534C 503.8124816894531 508.40000915527344 503.8124816894531 595.4000091552734 472.39619201082917 594.1709833373943" stroke="#323232" stroke-width="2" fill="none" marker-end="url(#SvgjsMarker1123)"></path><rect id="SvgjsRect1125" width="26" height="16" x="482.6529354213395" y="543.7890554356038" fill="#ffffff"></rect><text id="SvgjsText1126" font-family="微软雅黑" text-anchor="middle" font-size="13px" width="26px" fill="#323232" font-weight="400" align="top" lineHeight="16px" anchor="middle" family="微软雅黑" size="13px" weight="400" font-style="" opacity="1" y="541.1640554356038" transform="rotate(0)"><tspan id="SvgjsTspan1127" dy="16" x="495.6529354213395"><tspan id="SvgjsTspan1128" style="text-decoration:;">更新</tspan></tspan></text></g><g id="SvgjsG1129"><path id="SvgjsPath1130" d="M470.9020395853736 306.6568232118248C 495.21248168945317 306.20000076293945 495.21248168945317 369.20000076293945 473.2148901147666 367.5554399469521" stroke="#323232" stroke-width="2" fill="none" marker-end="url(#SvgjsMarker1131)"></path><rect id="SvgjsRect1133" width="26" height="16" x="476.4239774796074" y="329.5515334670517" fill="#ffffff"></rect><text id="SvgjsText1134" font-family="微软雅黑" text-anchor="middle" font-size="13px" width="26px" fill="#323232" font-weight="400" align="top" lineHeight="16px" anchor="middle" family="微软雅黑" size="13px" weight="400" font-style="" opacity="1" y="326.9265334670517" transform="rotate(0)"><tspan id="SvgjsTspan1135" dy="16" x="489.4239774796074"><tspan id="SvgjsTspan1136" style="text-decoration:;">查询</tspan></tspan></text></g></svg>